<svg width="117" height="57" viewBox="0 0 117 57" fill="none" xmlns="http://www.w3.org/2000/svg">
<path d="M32.771 14.7123C34.3383 16.9049 36.734 17.7804 40.6596 17.7804C44.5852 17.7804 48.6675 12.9836 48.6675 12.9836C48.6675 12.9836 53.0931 11.8237 53.7797 11.3597C54.4664 10.8958 57.2426 11.3597 57.2426 11.3597C57.2426 11.3597 79.9753 28.2497 83.3636 32.8818C83.3636 32.8818 85.4384 33.6901 87.7519 31.4974C90.0655 29.3048 90.1774 24.5454 90.1774 24.5454C90.1774 24.5454 83.7069 5.83702 81.2814 4.87915C78.8559 3.92129 73.169 4.9914 69.9374 3.14302C66.7059 1.29463 59.8995 -1.25719 54.5932 0.748346C49.2869 2.75388 44.1448 2.94845 42.4582 4.79684C40.7715 6.64523 31.2112 12.5571 32.7561 14.7497" fill="#2E55A5"/>
<path d="M19.7179 34.9098L24.8227 39.8114C24.9838 40.0275 25.0708 40.29 25.0708 40.5597C25.0708 40.8295 24.9838 41.092 24.8227 41.3081C24.2704 42.1387 22.6211 44.945 19.9866 43.8449C17.3521 42.7449 18.3895 35.4037 19.7179 34.9098Z" fill="#2E55A5"/>
<path d="M27.0764 44.5484C27.0764 44.5484 25.8525 48.6418 28.8825 50.3255C31.9126 52.0093 33.1664 50.9841 33.1664 50.9841C33.1664 50.9841 34.047 52.9746 35.6441 53.4087C36.9137 53.6527 38.218 53.6527 39.4876 53.4087C40.0651 54.4087 40.8488 55.2736 41.7863 55.9455C43.0028 56.6041 47.0627 56.5517 47.8911 55.3394C47.8911 55.3394 47.6672 49.0085 41.025 49.9439C41.025 49.9439 39.2637 45.3192 34.7038 46.4716C34.6424 45.5931 34.2917 44.7599 33.7067 44.103C33.1218 43.4461 32.3358 43.0026 31.4722 42.8422C30.6542 42.6085 29.7824 42.6487 28.9892 42.9566C28.1959 43.2645 27.5244 43.8233 27.0764 44.5484" fill="#2E55A5"/>
<path d="M21.6505 15.715C21.6505 15.715 16.5084 26.6108 18.2324 31.0409L29.0166 41.5925C29.0166 41.5925 31.9347 40.7169 33.6587 41.5925C35.3827 42.468 36.1514 45.192 36.1514 45.192C37.2322 45.1019 38.3203 45.2136 39.3605 45.5212C40.5994 46.0076 41.6965 48.6268 41.6965 48.6268C41.6965 48.6268 45.7714 48.6268 46.9207 49.5398C48.07 50.4527 49.294 53.8502 49.294 53.8502C49.294 53.8502 53.6002 56.2374 55.5257 54.9877C57.4512 53.7379 58.5109 52.9447 57.4437 51.1263C56.8602 50.1068 56.3992 49.0217 56.0705 47.8934C56.0705 47.8934 59.4811 51.9569 60.4812 51.9569C61.3959 51.7955 62.2512 51.3926 62.9589 50.7895C63.4961 50.2507 63.9244 49.6129 64.2202 48.9112C64.2202 48.9112 65.3546 48.1628 62.5261 45.6185C59.6976 43.0742 59.2423 41.6448 59.9215 41.9891C60.6006 42.3333 66.3696 47.5492 66.3696 47.5492C66.3696 47.5492 68.3921 48.3649 69.8847 47.6914C71.3774 47.0179 73.7282 44.4436 73.8402 43.7926C73.8186 42.9344 73.6158 42.0905 73.2454 41.3166C72.8749 40.5427 72.3451 39.8563 71.6908 39.3026C69.8847 37.7161 64.4516 33.0465 64.4516 33.0465C64.4516 33.0465 64.5635 32.156 65.2427 32.4927C65.9218 32.8295 77.93 40.5822 77.93 40.5822C77.93 40.5822 79.9674 41.7421 81.6616 40.5822C83.3557 39.4223 85.617 37.7161 82.6765 34.9921C81.3705 33.7724 76.5344 28.9157 70.8997 24.1188C63.8844 18.1322 55.9735 12.1455 55.9735 12.1455L49.0701 14.6449C49.0701 14.6449 45.5251 18.8506 40.1143 19.2996C34.7035 19.7486 28.9196 14.2857 30.9347 12.5646C33.8527 10.125 38.2634 5.51523 42.1293 3.18043C43.9118 2.15506 45.8958 1.53193 47.9431 1.35449C41.2935 1.87833 40.0322 2.64163 34.3752 4.34783C29.0017 5.98669 28.0016 5.23835 28.0016 5.23835L21.6505 15.715Z" fill="#009ADE"/>
<path d="M27.1739 3.47977L25.9201 3.44235L23.2782 3.95122L22.7707 4.19817L21.196 5.40299L20.5392 5.74722L19.375 6.73503L17.8823 6.32344L17.2181 6.82483L15.8001 8.08951L13.2179 10.1699L10.9267 12.0557L8.72508 13.7619L6.71003 15.3035L6.4936 15.4606L3.98599 16.5681L3.54566 17.0695L3.01578 19.2472L2.76204 19.786L3.23221 20.9534L3.67254 22.8167L3.51581 23.7896L1.78437 25.0243L0.963421 26.1019L0.620117 26.7904L1.00074 26.8503L3.54566 27.6884L4.29198 27.5313L5.26218 28.1599L5.73236 28.6687L6.11298 29.3572L8.12803 30.7491L8.47133 31.3478L9.96396 32.1634L10.5685 32.7995L11.1954 33.0465L12.4492 33.271L13.5239 33.6227L13.6507 33.8397L13.7702 34.7527L13.994 35.5459L14.5015 35.6058L15.1284 35.2316L15.2105 35.1867C15.8225 30.0232 16.9718 21.5146 18.3824 17.2267C20.1362 11.9734 25.5544 5.73974 27.3978 3.74169L27.1739 3.47977Z" fill="#009ADE"/>
<path d="M114.402 17.9974L113.171 15.3259L108.618 13.1632L108.141 13.2231L110.186 14.4129L111.029 15.6252L110.424 15.6626L109.544 14.9143L108.193 14.9817L107.447 15.6926L106.7 15.6552L106.029 14.5102L104.961 13.47L104.006 12.7217L102.625 12.3849L102.051 12.6843L101.304 12.6169L101.133 12.1455L101.028 11.0978L101.506 10.791L103.334 10.6189L106.708 12.5496L106.536 12.0108L98.573 5.54515L94.3563 4.69953L94.8265 5.14105L95.8713 5.44038L95.6325 5.71726L94.7966 6.0166L93.7145 5.8819L92.2741 4.52741L86.9006 2.73889L85.7065 2.99333L83.8184 3.94371L83.0049 3.99609C84.9005 6.80235 87.5723 11.0155 88.9008 14.3306C90.1685 17.6938 91.1399 21.1618 91.8039 24.695L92.2965 25.0019L94.0503 25.4808L95.431 25.3162L96.4087 24.5005L97.2893 24.261L98.0356 24.5678L98.4386 24.3957L98.5058 23.7222L98.9163 23.5501L99.6626 23.9243L100.342 24.0215L100.946 23.8195L101.185 23.5202L101.282 23.1759L101.76 22.9065L103.252 23.1759L104.969 22.7718L106.857 21.7541L108.103 21.2826L108.753 21.4173L109.499 20.8785L110.38 19.7261L112.335 19.1873L116.559 19.4567L115.44 18.6485L114.402 17.9974Z" fill="#2E55A5"/>
</svg>
